# xmcd
#
# Track frame offsets:
#	150
#	30817
#	137890
#	169573
#	193281
#	213029
#	229031
#	270624
#	299130
#
# Disc length: 4369 seconds
#
# Revision: 1
# Processed by: cddbd v1.5.2PL0 Copyright (c) Steve Scherf et al.
# Submitted via: audiograbber 1.83.01
#
DISCID=80110f09
DTITLE=Grateful Dead - 72-10-17 Fox Theatre, St Louis MO
DYEAR=1900
DGENRE=
TTITLE0=Cumberland Blues
TTITLE1=Playing In The Band
TTITLE2=Casey Jones
TTITLE3=Greatest Story Ever Told
TTITLE4=Don't Ease Me In
TTITLE5=Mexicali Blues
TTITLE6=Black Peter
TTITLE7=Me and Bobby McGee
TTITLE8=Bertha
EXTD=
EXTT0=
EXTT1=
EXTT2=
EXTT3=
EXTT4=
EXTT5=
EXTT6=
EXTT7=
EXTT8=
PLAYORDER=
